<svg xmlns="http://www.w3.org/2000/svg" xmlns:xlink="http://www.w3.org/1999/xlink" width="500" zoomAndPan="magnify" viewBox="0 0 375 374.999991" height="500" preserveAspectRatio="xMidYMid meet" version="1.0"><defs><clipPath id="id1"><path d="M 110.34375 110.34375 L 264.84375 110.34375 L 264.84375 264.84375 L 110.34375 264.84375 Z M 110.34375 110.34375 " clip-rule="nonzero"/></clipPath><clipPath id="id2"><path d="M 165.800781 165.800781 L 209.300781 165.800781 L 209.300781 209.300781 L 165.800781 209.300781 Z M 165.800781 165.800781 " clip-rule="nonzero"/></clipPath></defs><path fill="#000a12" d="M 187.5 0 C 83.945312 0 0 83.945312 0 187.5 C 0 291.054688 83.945312 375 187.5 375 C 291.054688 375 375 291.054688 375 187.5 C 375 83.945312 291.054688 0 187.5 0 " fill-opacity="1" fill-rule="nonzero"/><g clip-path="url(#id1)"><path fill="#870000" d="M 187.59375 110.34375 C 144.929688 110.34375 110.34375 144.929688 110.34375 187.59375 C 110.34375 230.257812 144.929688 264.84375 187.59375 264.84375 C 230.257812 264.84375 264.84375 230.257812 264.84375 187.59375 C 264.84375 144.929688 230.257812 110.34375 187.59375 110.34375 " fill-opacity="1" fill-rule="nonzero"/></g><g clip-path="url(#id2)"><path fill="#263138" d="M 187.550781 165.800781 C 175.535156 165.800781 165.800781 175.535156 165.800781 187.550781 C 165.800781 199.5625 175.535156 209.300781 187.550781 209.300781 C 199.5625 209.300781 209.300781 199.5625 209.300781 187.550781 C 209.300781 175.535156 199.5625 165.800781 187.550781 165.800781 " fill-opacity="1" fill-rule="nonzero"/></g></svg>