<svg xmlns="http://www.w3.org/2000/svg" xmlns:xlink="http://www.w3.org/1999/xlink" width="500" zoomAndPan="magnify" viewBox="0 0 375 374.999991" height="500" preserveAspectRatio="xMidYMid meet" version="1.0"><defs><g/><clipPath id="id1"><path d="M 59.683594 31.160156 L 315.433594 31.160156 L 315.433594 286.910156 L 59.683594 286.910156 Z M 59.683594 31.160156 " clip-rule="nonzero"/></clipPath><clipPath id="id2"><path d="M 134.902344 106.378906 L 239.902344 106.378906 L 239.902344 211.378906 L 134.902344 211.378906 Z M 134.902344 106.378906 " clip-rule="nonzero"/></clipPath><clipPath id="id3"><path d="M 172.707031 144.183594 L 201.957031 144.183594 L 201.957031 173.433594 L 172.707031 173.433594 Z M 172.707031 144.183594 " clip-rule="nonzero"/></clipPath></defs><g fill="#ffffff" fill-opacity="1"><g transform="translate(14.353557, 163.43844)"><g><path d="M 43.828125 18.5 L 5.125 40.171875 L 3.84375 30.171875 L 11.625 26.109375 L 9.65625 10.578125 L 1.09375 8.609375 L -0.171875 -1.375 L 42.734375 9.890625 Z M 19.390625 21.921875 L 30.65625 15.84375 L 30.65625 15.75 L 18.21875 12.703125 Z M 19.390625 21.921875 "/></g></g></g><g fill="#ffffff" fill-opacity="1"><g transform="translate(20.304639, 205.442352)"><g><path d="M 39.53125 -11.78125 L 44.75 1.953125 C 46.15625 5.660156 46.3125 9.054688 45.21875 12.140625 C 44.125 15.222656 41.742188 17.460938 38.078125 18.859375 C 35.253906 19.921875 32.613281 20.101562 30.15625 19.40625 C 27.707031 18.71875 25.632812 17.3125 23.9375 15.1875 L 13.078125 34.46875 L 8.84375 23.3125 L 19.59375 5.8125 L 4.390625 11.578125 L 1.0625 2.8125 Z M 25.796875 3.453125 L 26.1875 4.46875 C 26.488281 5.28125 26.757812 5.957031 27 6.5 C 27.25 7.050781 27.601562 7.648438 28.0625 8.296875 C 28.519531 8.941406 29 9.414062 29.5 9.71875 C 30.007812 10.03125 30.648438 10.21875 31.421875 10.28125 C 32.191406 10.34375 33.039062 10.195312 33.96875 9.84375 C 34.90625 9.488281 35.640625 9.03125 36.171875 8.46875 C 36.710938 7.914062 37.070312 7.359375 37.25 6.796875 C 37.425781 6.234375 37.46875 5.554688 37.375 4.765625 C 37.289062 3.972656 37.160156 3.289062 36.984375 2.71875 C 36.804688 2.15625 36.566406 1.46875 36.265625 0.65625 L 35.875 -0.359375 Z M 25.796875 3.453125 "/></g></g></g><g fill="#ffffff" fill-opacity="1"><g transform="translate(34.549846, 241.295348)"><g><path d="M 27.953125 -17.390625 L 34.875 -21.8125 L 50.453125 2.546875 L 43.53125 6.96875 L 38.265625 -1.265625 L 10.53125 16.46875 L 5.484375 8.5625 L 33.21875 -9.171875 Z M 27.953125 -17.390625 "/></g></g></g><g fill="#ffffff" fill-opacity="1"><g transform="translate(52.179803, 268.360752)"><g><path d="M 48.15625 -8.8125 L 42.15625 -3.1875 L 32.46875 -13.515625 L 26.5 -7.90625 L 35.78125 1.984375 L 29.796875 7.609375 L 20.515625 -2.28125 L 14.46875 3.375 L 24.15625 13.703125 L 18.15625 19.34375 L 2.046875 2.1875 L 32.046875 -25.96875 Z M 48.15625 -8.8125 "/></g></g></g><g fill="#ffffff" fill-opacity="1"><g transform="translate(73.679031, 290.341226)"><g/></g></g><g fill="#ffffff" fill-opacity="1"><g transform="translate(85.455193, 300.420786)"><g><path d="M 44.109375 -21.25 L 39.8125 -14.234375 L 27.734375 -21.625 L 23.46875 -14.640625 L 35.03125 -7.5625 L 30.734375 -0.5625 L 19.171875 -7.640625 L 14.859375 -0.578125 L 26.9375 6.8125 L 22.640625 13.84375 L 2.5625 1.5625 L 24.03125 -33.53125 Z M 44.109375 -21.25 "/></g></g></g><g fill="#ffffff" fill-opacity="1"><g transform="translate(112.798827, 317.932829)"><g><path d="M 35.25 11.25 L 40.828125 -12.578125 L 40.59375 -12.65625 L 25.21875 7.796875 L 19.890625 6.09375 L 19.21875 -19.46875 L 18.96875 -19.546875 L 9.6875 3.09375 L 0.765625 0.25 L 16.78125 -37.828125 L 26.296875 -34.78125 L 27.78125 -9.40625 L 43.6875 -29.234375 L 53.1875 -26.203125 L 44.1875 14.109375 Z M 35.25 11.25 "/></g></g></g><g fill="#ffffff" fill-opacity="1"><g transform="translate(160.715121, 331.279366)"><g/></g></g><g fill="#ffffff" fill-opacity="1"><g transform="translate(176.248174, 333.683782)"><g><path d="M 1.75 -41.21875 L 16.734375 -41.671875 C 20.929688 -41.796875 24.359375 -40.816406 27.015625 -38.734375 C 29.671875 -36.648438 31.0625 -33.546875 31.1875 -29.421875 C 31.3125 -25.304688 30.09375 -22.039062 27.53125 -19.625 C 24.976562 -17.207031 21.640625 -15.9375 17.515625 -15.8125 L 11.90625 -15.640625 L 12.375 -0.375 L 3 -0.09375 Z M 11.6875 -23.109375 L 14.328125 -23.1875 C 16.410156 -23.25 18.109375 -23.722656 19.421875 -24.609375 C 20.742188 -25.492188 21.375 -26.898438 21.3125 -28.828125 C 21.257812 -30.796875 20.546875 -32.179688 19.171875 -32.984375 C 17.804688 -33.796875 16.082031 -34.171875 14 -34.109375 L 11.359375 -34.03125 Z M 11.6875 -23.109375 "/></g></g></g><g fill="#ffffff" fill-opacity="1"><g transform="translate(212.114954, 332.090415)"><g><path d="M 2.921875 -42.859375 L 10.234375 -10.78125 L 24.046875 -13.921875 L 25.875 -5.890625 L 2.921875 -0.671875 L -6.21875 -40.78125 Z M 2.921875 -42.859375 "/></g></g></g><g fill="#ffffff" fill-opacity="1"><g transform="translate(242.615394, 325.409669)"><g><path d="M 4.28125 -47.390625 L 36.71875 -17.109375 L 27.578125 -12.84375 L 21.328125 -19.03125 L 7.140625 -12.421875 L 7.859375 -3.65625 L -1.265625 0.59375 L -3.578125 -43.71875 Z M 14.96875 -25.125 L 5.765625 -34.046875 L 5.671875 -34 L 6.5625 -21.203125 Z M 14.96875 -25.125 "/></g></g></g><g fill="#ffffff" fill-opacity="1"><g transform="translate(280.670641, 306.923737)"><g><path d="M -11.5625 -44.171875 C -9.800781 -45.546875 -7.882812 -46.632812 -5.8125 -47.4375 C -3.75 -48.238281 -2.113281 -48.707031 -0.90625 -48.84375 L 0.890625 -48.984375 L 2.5 -40.765625 C 2.15625 -40.742188 1.675781 -40.691406 1.0625 -40.609375 C 0.457031 -40.523438 -0.582031 -40.238281 -2.0625 -39.75 C -3.539062 -39.257812 -4.78125 -38.625 -5.78125 -37.84375 C -7.007812 -36.882812 -7.753906 -35.882812 -8.015625 -34.84375 C -8.273438 -33.800781 -8.054688 -32.832031 -7.359375 -31.9375 C -7.003906 -31.5 -6.519531 -31.210938 -5.90625 -31.078125 C -5.300781 -30.941406 -4.445312 -30.953125 -3.34375 -31.109375 C -2.25 -31.273438 -1.3125 -31.453125 -0.53125 -31.640625 C 0.25 -31.835938 1.445312 -32.140625 3.0625 -32.546875 C 5.84375 -33.304688 8.570312 -33.5 11.25 -33.125 C 13.9375 -32.75 16.039062 -31.59375 17.5625 -29.65625 C 19.007812 -27.8125 19.941406 -25.929688 20.359375 -24.015625 C 20.785156 -22.109375 20.722656 -20.304688 20.171875 -18.609375 C 19.617188 -16.910156 18.785156 -15.316406 17.671875 -13.828125 C 16.566406 -12.335938 15.191406 -10.945312 13.546875 -9.65625 C 12.128906 -8.550781 10.625 -7.609375 9.03125 -6.828125 C 7.445312 -6.046875 6.023438 -5.515625 4.765625 -5.234375 C 3.515625 -4.953125 2.359375 -4.726562 1.296875 -4.5625 C 0.234375 -4.40625 -0.570312 -4.34375 -1.125 -4.375 L -2 -4.390625 L -3.15625 -13.484375 C -2.632812 -13.472656 -1.941406 -13.476562 -1.078125 -13.5 C -0.210938 -13.53125 1.179688 -13.753906 3.109375 -14.171875 C 5.046875 -14.585938 6.550781 -15.21875 7.625 -16.0625 C 10.738281 -18.507812 11.460938 -20.789062 9.796875 -22.90625 C 9.453125 -23.34375 9.019531 -23.664062 8.5 -23.875 C 7.988281 -24.082031 7.300781 -24.15625 6.4375 -24.09375 C 5.582031 -24.03125 4.847656 -23.9375 4.234375 -23.8125 C 3.617188 -23.695312 2.644531 -23.484375 1.3125 -23.171875 C -0.0195312 -22.867188 -1.015625 -22.644531 -1.671875 -22.5 C -4.390625 -21.9375 -6.859375 -21.960938 -9.078125 -22.578125 C -11.296875 -23.191406 -13.0625 -24.332031 -14.375 -26 C -16.644531 -28.90625 -17.425781 -32.117188 -16.71875 -35.640625 C -16.019531 -39.171875 -14.300781 -42.015625 -11.5625 -44.171875 Z M -11.5625 -44.171875 "/></g></g></g><g fill="#ffffff" fill-opacity="1"><g transform="translate(308.940873, 284.165393)"><g><path d="M -24.78125 -21.6875 L -31.03125 -27.015625 L -12.25 -49.015625 L -6 -43.6875 L -12.359375 -36.25 L 12.6875 -14.875 L 6.609375 -7.734375 L -18.4375 -29.109375 Z M -24.78125 -21.6875 "/></g></g></g><g fill="#ffffff" fill-opacity="1"><g transform="translate(328.994414, 259.670583)"><g><path d="M -28.140625 -32.453125 L 6.625 -10.453125 L 1.609375 -2.53125 L -33.15625 -24.53125 Z M -28.140625 -32.453125 "/></g></g></g><g fill="#ffffff" fill-opacity="1"><g transform="translate(339.106105, 245.061016)"><g><path d="M 1.8125 -26.234375 C 2.363281 -27.546875 2.703125 -28.90625 2.828125 -30.3125 C 2.953125 -31.726562 2.953125 -32.800781 2.828125 -33.53125 L 2.609375 -34.65625 L 11.5 -35.25 C 11.539062 -35.09375 11.59375 -34.875 11.65625 -34.59375 C 11.726562 -34.3125 11.804688 -33.691406 11.890625 -32.734375 C 11.972656 -31.785156 11.976562 -30.800781 11.90625 -29.78125 C 11.84375 -28.757812 11.628906 -27.472656 11.265625 -25.921875 C 10.910156 -24.378906 10.410156 -22.84375 9.765625 -21.3125 C 8.285156 -17.789062 6.015625 -14.816406 2.953125 -12.390625 C -0.109375 -9.960938 -3.5625 -8.414062 -7.40625 -7.75 C -11.25 -7.09375 -14.9375 -7.503906 -18.46875 -8.984375 C -21.132812 -10.109375 -23.453125 -11.753906 -25.421875 -13.921875 C -27.390625 -16.085938 -28.851562 -18.476562 -29.8125 -21.09375 C -30.769531 -23.707031 -31.238281 -26.488281 -31.21875 -29.4375 C -31.207031 -32.394531 -30.648438 -35.191406 -29.546875 -37.828125 C -28.515625 -40.285156 -27.269531 -42.425781 -25.8125 -44.25 C -24.363281 -46.070312 -23.171875 -47.289062 -22.234375 -47.90625 L -20.828125 -48.8125 L -15.015625 -42.0625 C -15.285156 -41.925781 -15.640625 -41.695312 -16.078125 -41.375 C -16.515625 -41.050781 -17.21875 -40.335938 -18.1875 -39.234375 C -19.164062 -38.128906 -19.929688 -36.921875 -20.484375 -35.609375 C -21.359375 -33.523438 -21.804688 -31.507812 -21.828125 -29.5625 C -21.847656 -27.625 -21.507812 -25.9375 -20.8125 -24.5 C -20.113281 -23.070312 -19.234375 -21.835938 -18.171875 -20.796875 C -17.109375 -19.765625 -15.914062 -18.96875 -14.59375 -18.40625 C -11.71875 -17.195312 -8.6875 -17.191406 -5.5 -18.390625 C -2.3125 -19.597656 0.125 -22.210938 1.8125 -26.234375 Z M 1.8125 -26.234375 "/></g></g></g><g fill="#ffffff" fill-opacity="1"><g transform="translate(355.012881, 206.984419)"><g><path d="M -20.234375 -4.03125 C -26.128906 -4.863281 -30.828125 -7.578125 -34.328125 -12.171875 C -37.835938 -16.773438 -39.191406 -21.910156 -38.390625 -27.578125 C -37.578125 -33.285156 -34.851562 -37.835938 -30.21875 -41.234375 C -25.59375 -44.640625 -20.316406 -45.921875 -14.390625 -45.078125 C -8.441406 -44.222656 -3.707031 -41.546875 -0.1875 -37.046875 C 3.320312 -32.546875 4.660156 -27.382812 3.828125 -21.5625 C 2.984375 -15.613281 0.269531 -10.988281 -4.3125 -7.6875 C -8.90625 -4.382812 -14.210938 -3.164062 -20.234375 -4.03125 Z M -18.796875 -14.0625 C -16.660156 -13.75 -14.660156 -13.796875 -12.796875 -14.203125 C -10.941406 -14.617188 -9.289062 -15.5625 -7.84375 -17.03125 C -6.394531 -18.5 -5.503906 -20.4375 -5.171875 -22.84375 C -4.671875 -26.300781 -5.476562 -29.078125 -7.59375 -31.171875 C -9.71875 -33.273438 -12.457031 -34.566406 -15.8125 -35.046875 C -19.144531 -35.515625 -22.128906 -35.019531 -24.765625 -33.5625 C -27.410156 -32.113281 -28.976562 -29.691406 -29.46875 -26.296875 C -29.9375 -22.941406 -29.109375 -20.179688 -26.984375 -18.015625 C -24.859375 -15.847656 -22.128906 -14.53125 -18.796875 -14.0625 Z M -18.796875 -14.0625 "/></g></g></g><g clip-path="url(#id1)"><path fill="#000a12" d="M 187.558594 31.160156 C 116.933594 31.160156 59.683594 88.410156 59.683594 159.035156 C 59.683594 229.65625 116.933594 286.910156 187.558594 286.910156 C 258.179688 286.910156 315.433594 229.65625 315.433594 159.035156 C 315.433594 88.410156 258.179688 31.160156 187.558594 31.160156 " fill-opacity="1" fill-rule="nonzero"/></g><g clip-path="url(#id2)"><path fill="#870000" d="M 187.402344 106.378906 C 158.40625 106.378906 134.902344 129.882812 134.902344 158.878906 C 134.902344 187.875 158.40625 211.378906 187.402344 211.378906 C 216.398438 211.378906 239.902344 187.875 239.902344 158.878906 C 239.902344 129.882812 216.398438 106.378906 187.402344 106.378906 " fill-opacity="1" fill-rule="nonzero"/></g><g clip-path="url(#id3)"><path fill="#263138" d="M 187.332031 144.183594 C 179.253906 144.183594 172.707031 150.730469 172.707031 158.808594 C 172.707031 166.886719 179.253906 173.433594 187.332031 173.433594 C 195.410156 173.433594 201.957031 166.886719 201.957031 158.808594 C 201.957031 150.730469 195.410156 144.183594 187.332031 144.183594 " fill-opacity="1" fill-rule="nonzero"/></g></svg>